<?xml version="1.0" encoding="utf-8"?>
<!-- Generator: Adobe Illustrator 27.8.0, SVG Export Plug-In . SVG Version: 6.00 Build 0)  -->
<svg version="1.1" id="레이어_1" xmlns="http://www.w3.org/2000/svg" xmlns:xlink="http://www.w3.org/1999/xlink" x="0px"
	 y="0px" viewBox="0 0 28.7 31.4" style="enable-background:new 0 0 28.7 31.4;" xml:space="preserve">
<style type="text/css">
	.st0{fill:#2E2E2E;}
	.st1{fill-rule:evenodd;clip-rule:evenodd;fill:#2E2E2E;}
</style>
<path class="st0" d="M6.5,6.8c-0.2-1-0.2-2-0.1-2.9S6,2.2,5.2,1.9C4.6,1.6,3.9,1.8,3.4,2.2c-1,0.9-1.2,2.4-1.1,3.7
	c0.1,1.2,0.6,3,2,3.3c1.1,0.2,2.4-0.7,2.3-1.9V7.1C6.6,7,6.6,6.9,6.5,6.8z"/>
<path class="st0" d="M22,7.1v0.2c-0.1,1.2,1.2,2.1,2.3,1.9c1.4-0.3,1.9-2.1,2-3.3c0.1-1.3-0.1-2.8-1.1-3.7c-0.5-0.4-1.2-0.6-1.8-0.3
	c-0.8,0.3-1.3,1.1-1.2,2s0.1,1.9-0.1,2.9C22,6.9,22,7,22,7.1z"/>
<path class="st1" d="M25,20.5c1.2-2.4,1.3-3.5,1.3-5.4c0-6.7-5.4-12.1-12-12.1s-12,5.4-12,12.1c0,2,0.6,3.8,1.3,5.3
	c0.1,0.2-0.3,1.1-0.3,1.4c-0.1,0.6,0,1.2,0.1,1.7c0.7,3.1,3.6,4.9,6.5,5.7c3.6,1.1,7.5,1,10.9-0.6c2.6-1.2,4.8-3.7,4.5-6.7
	C25.3,21.7,24.9,20.7,25,20.5z M9.6,21.9c-1.8,0-3.3-1.5-3.3-3.4c0-1.8,1.5-3.4,3.3-3.4s3.3,1.5,3.3,3.4
	C12.9,20.4,11.4,21.9,9.6,21.9z M15,22.9c-0.5,0-0.8-0.3-0.8-0.7c-0.1-0.4,1.6-0.4,1.6,0C15.8,22.6,15.4,22.9,15,22.9z M19.7,21.9
	c-1.5,0-2.7-1.2-2.7-2.7s1.2-2.7,2.7-2.7s2.7,1.2,2.7,2.7S21.2,21.9,19.7,21.9z"/>
</svg>
